<?xml version="1.0" encoding="UTF-8"?>
<svg id="App_Icon" data-name="App Icon" xmlns="http://www.w3.org/2000/svg" viewBox="0 0 786.8 671.8">
  <defs>
    <style>
      .cls-1 {
        fill: #519872;
        stroke-width: 0px;
      }

      .cls-2 {
        fill: none;
        stroke: #519872;
        stroke-miterlimit: 10;
        stroke-width: 10px;
      }
    </style>
  </defs>
  <circle class="cls-1" cx="366.6" cy="492.7" r="20.7"/>
  <circle class="cls-1" cx="208.1" cy="474.1" r="20.7"/>
  <circle class="cls-1" cx="158.5" cy="386.1" r="20.7"/>
  <circle class="cls-1" cx="20.7" cy="273.1" r="20.7"/>
  <circle class="cls-1" cx="158.5" cy="70.4" r="20.7"/>
  <circle class="cls-1" cx="454.6" cy="20.8" r="20.7"/>
  <circle class="cls-1" cx="672.9" cy="140.7" r="20.7"/>
  <circle class="cls-1" cx="672.9" cy="494.8" r="20.7"/>
  <circle class="cls-1" cx="766.1" cy="287.8" r="20.7"/>
  <circle class="cls-1" cx="488.7" cy="568.3" r="20.7"/>
  <circle class="cls-1" cx="490.8" cy="172.9" r="20.7"/>
  <circle class="cls-1" cx="600.5" cy="298.1" r="20.7"/>
  <circle class="cls-1" cx="547.7" cy="482.4" r="20.7"/>
  <circle class="cls-1" cx="316.8" cy="367.5" r="20.7"/>
  <circle class="cls-1" cx="257.8" cy="171.8" r="20.7"/>
  <circle class="cls-1" cx="483.5" cy="651.1" r="20.7"/>
  <circle class="cls-1" cx="601.5" cy="595.2" r="20.7"/>
  <circle class="cls-1" cx="764" cy="453.4" r="20.7"/>
  <circle class="cls-1" cx="582.9" cy="54.9" r="20.7"/>
  <circle class="cls-1" cx="297.1" cy="20.7" r="20.7"/>
  <circle class="cls-1" cx="47.6" cy="140.7" r="20.7"/>
  <circle class="cls-1" cx="66.3" cy="346.8" r="20.7"/>
  <circle class="cls-1" cx="463.7" cy="381.8" r="20.7"/>
  <circle class="cls-1" cx="392.4" cy="261.9" r="20.7"/>
  <circle class="cls-1" cx="167.8" cy="252.5" r="20.7"/>
  <polygon class="cls-2" points="158.5 70.4 47.6 140.7 20.7 273.3 66.3 346.8 158.5 386.1 208.1 474.1 366.6 492.7 483.5 651.1 488.7 568.3 601.5 595.2 672.9 494.8 764 453.4 766.1 287.8 672.9 140.7 582.9 54.9 454.5 20.7 297.1 20.7 158.5 70.4"/>
  <polyline class="cls-2" points="257.1 166.7 297.1 20.7 490.8 172.9 454.5 20.7"/>
  <polyline class="cls-2" points="766.1 287.8 600.5 298.1 672.9 140.7 490.8 172.9 582.9 54.9"/>
  <polyline class="cls-2" points="764 453.4 600.5 298.1 672.9 494.8 547.7 482.4 601.5 595.2"/>
  <polygon class="cls-2" points="488.7 568.3 547.7 482.4 366.6 492.7 488.7 568.3"/>
  <polygon class="cls-2" points="547.7 482.4 600.5 298.1 463.8 382 547.7 482.4"/>
  <polygon class="cls-2" points="392.4 261.9 490.8 172.9 600.5 298.1 392.4 261.9"/>
  <polyline class="cls-2" points="463.8 382 392.4 261.9 316.8 367.5 463.8 382 366.6 492.7 316.8 367.5 208.1 474.1"/>
  <polygon class="cls-2" points="158.5 386.1 316.8 367.5 167.8 252.5 158.5 386.1"/>
  <polyline class="cls-2" points="66.3 346.8 167.8 252.5 20.7 273.3"/>
  <polyline class="cls-2" points="47.6 140.7 167.8 252.5 158.5 70.4 257.8 171.8 490.8 172.9"/>
  <polygon class="cls-2" points="257.8 171.8 392.4 261.9 167.8 252.5 257.8 171.8"/>
</svg>